<?xml version="1.0" standalone="no"?><svg xmlns="http://www.w3.org/2000/svg" viewBox="0 0 1440 320"><path fill="#e7c496 " fill-opacity="1" d="M0,128L40,128C80,128,160,128,240,160C320,192,400,256,480,266.7C560,277,640,235,720,192C800,149,880,107,960,117.3C1040,128,1120,192,1200,218.7C1280,245,1360,235,1400,229.3L1440,224L1440,320L1400,320C1360,320,1280,320,1200,320C1120,320,1040,320,960,320C880,320,800,320,720,320C640,320,560,320,480,320C400,320,320,320,240,320C160,320,80,320,40,320L0,320Z"></path></svg>