<?xml version="1.0" standalone="no"?><svg xmlns="http://www.w3.org/2000/svg" viewBox="0 0 1440 320"><path fill="#e30f00" fill-opacity="1" d="M0,64L14.1,74.7C28.2,85,56,107,85,106.7C112.9,107,141,85,169,106.7C197.6,128,226,192,254,229.3C282.4,267,311,277,339,245.3C367.1,213,395,139,424,138.7C451.8,139,480,213,508,229.3C536.5,245,565,203,593,160C621.2,117,649,75,678,74.7C705.9,75,734,117,762,149.3C790.6,181,819,203,847,197.3C875.3,192,904,160,932,138.7C960,117,988,107,1016,96C1044.7,85,1073,75,1101,74.7C1129.4,75,1158,85,1186,117.3C1214.1,149,1242,203,1271,213.3C1298.8,224,1327,192,1355,165.3C1383.5,139,1412,117,1426,106.7L1440,96L1440,0L1425.9,0C1411.8,0,1384,0,1355,0C1327.1,0,1299,0,1271,0C1242.4,0,1214,0,1186,0C1157.6,0,1129,0,1101,0C1072.9,0,1045,0,1016,0C988.2,0,960,0,932,0C903.5,0,875,0,847,0C818.8,0,791,0,762,0C734.1,0,706,0,678,0C649.4,0,621,0,593,0C564.7,0,536,0,508,0C480,0,452,0,424,0C395.3,0,367,0,339,0C310.6,0,282,0,254,0C225.9,0,198,0,169,0C141.2,0,113,0,85,0C56.5,0,28,0,14,0L0,0Z"></path></svg>